<svg width="125" height="41" viewBox="0 0 125 41" fill="none" xmlns="http://www.w3.org/2000/svg">
<path d="M116.7 0.354492C117.183 0.354492 117.523 0.355068 117.785 0.37793C118.043 0.400541 118.185 0.442704 118.286 0.501953C118.505 0.631042 118.67 0.834539 118.752 1.0752C118.79 1.18566 118.803 1.33343 118.773 1.59082C118.743 1.85133 118.674 2.18441 118.577 2.6582L112.683 31.2061C112.616 31.5335 112.569 31.7606 112.519 31.9365C112.47 32.1083 112.424 32.2078 112.371 32.2832C112.258 32.4426 112.104 32.5677 111.925 32.6455C111.841 32.6823 111.734 32.7075 111.556 32.7207C111.374 32.7342 111.142 32.7344 110.807 32.7344H56.5962C56.1652 32.7344 55.8651 32.7341 55.6353 32.7139C55.4082 32.6939 55.2896 32.6572 55.2095 32.6094C55.0255 32.4996 54.8874 32.3267 54.8208 32.123C54.7918 32.0344 54.7816 31.9111 54.812 31.6855C54.8429 31.4569 54.9095 31.1636 55.0044 30.7432L61.8618 0.354492H116.7Z" fill="#211F26" stroke="#211F26" stroke-width="0.709651"/>
<path d="M6.41832 5.13963C6.53354 4.57263 6.59114 4.28913 6.73981 4.07714C6.87091 3.89018 7.05101 3.743 7.26032 3.65175C7.49768 3.54828 7.78697 3.54828 8.36555 3.54828H66.6185L60.1429 37.2567L2.40953 36.7473C1.58303 36.74 1.16978 36.7364 0.881015 36.5642C0.627712 36.4132 0.436407 36.177 0.341333 35.8979C0.232947 35.5797 0.31524 35.1747 0.479826 34.3647L6.41832 5.13963Z" fill="#F71515"/>
<path d="M65.3009 23.4147L68.2599 9.40283H72.9378L71.9152 14.2983H76.0709L77.0935 9.40283H81.7714L78.8124 23.4147H74.1345L75.1571 18.5193H71.0014L69.9788 23.4147H65.3009Z" fill="#FDFCFD"/>
<path d="M87.214 23.6323C86.0826 23.6323 85.0963 23.4292 84.255 23.0231C83.4137 22.6169 82.7537 22.0512 82.2751 21.326C81.8109 20.5862 81.5788 19.7304 81.5788 18.7586C81.5788 18.541 81.5933 18.3234 81.6223 18.1059C81.6513 17.8883 81.6876 17.6635 81.7311 17.4314L83.4282 9.40283H88.1061L86.409 17.4096C86.38 17.5837 86.351 17.7505 86.322 17.9101C86.3075 18.0551 86.3002 18.1929 86.3002 18.3234C86.3002 18.8166 86.438 19.1647 86.7136 19.3678C87.0037 19.5709 87.4534 19.6724 88.0626 19.6724C88.8168 19.6724 89.397 19.5056 89.8032 19.172C90.2093 18.8239 90.4994 18.2364 90.6735 17.4096L92.3706 9.40283H97.0485L95.2426 17.9536C94.851 19.7957 93.9516 21.2027 92.5446 22.1745C91.1522 23.1464 89.3753 23.6323 87.214 23.6323Z" fill="#FDFCFD"/>
<path d="M95.7488 23.4147L98.7078 9.40283H106.715C107.904 9.40283 108.818 9.68568 109.456 10.2514C110.094 10.8171 110.413 11.5641 110.413 12.4924C110.413 12.623 110.406 12.7608 110.392 12.9058C110.377 13.0364 110.355 13.1741 110.326 13.3192C110.181 14.0299 109.927 14.6319 109.565 15.1251C109.202 15.6183 108.782 16.0099 108.303 16.3C108.724 16.5031 109.05 16.7714 109.282 17.105C109.529 17.4241 109.652 17.8448 109.652 18.367C109.652 18.4975 109.645 18.6353 109.63 18.7804C109.616 18.9109 109.594 19.056 109.565 19.2155C109.289 20.5355 108.702 21.5653 107.802 22.3051C106.903 23.0448 105.598 23.4147 103.886 23.4147H95.7488ZM101.993 14.8857H104.3C104.778 14.8857 105.126 14.7915 105.344 14.6029C105.576 14.3998 105.728 14.117 105.801 13.7544C105.815 13.6963 105.823 13.6456 105.823 13.602C105.837 13.544 105.844 13.486 105.844 13.428C105.844 12.8913 105.467 12.623 104.713 12.623H102.472L101.993 14.8857ZM100.862 20.2164H103.255C103.748 20.2164 104.111 20.1221 104.343 19.9335C104.575 19.7304 104.742 19.4186 104.843 18.9979C104.858 18.9399 104.865 18.8891 104.865 18.8456C104.88 18.7876 104.887 18.7368 104.887 18.6933C104.887 18.1421 104.495 17.8665 103.712 17.8665H101.362L100.862 20.2164Z" fill="#FDFCFD"/>
<path d="M114.733 37.1602L114.938 36.1894H116.004L115.8 37.1602H114.733ZM117.25 37.1602L116.694 34.1328H118.087L118.234 35.7167L119.051 34.1328H120.52L118.687 37.1602H117.25ZM120.1 37.1602L120.739 34.1328H122.023L122.01 34.3372C122.138 34.2648 122.302 34.203 122.502 34.1519C122.706 34.0966 122.917 34.0689 123.134 34.0689C123.424 34.0689 123.641 34.137 123.786 34.2733C123.93 34.4053 124.003 34.5969 124.003 34.8481C124.003 34.9035 123.999 34.9631 123.99 35.0269C123.981 35.0866 123.971 35.1504 123.958 35.2186L123.549 37.1602H122.176L122.553 35.3782C122.557 35.3569 122.559 35.3378 122.559 35.3207C122.564 35.3037 122.566 35.2867 122.566 35.2696C122.566 35.1462 122.485 35.0844 122.323 35.0844C122.242 35.0844 122.161 35.1015 122.08 35.1355C121.999 35.1696 121.931 35.21 121.876 35.2569L121.474 37.1602H120.1Z" fill="#211F26"/>
<path d="M6.91907 27.1806L9.8781 13.1687H17.4497C18.7842 13.1687 19.8141 13.5241 20.5393 14.2348C21.2791 14.9456 21.649 15.8811 21.649 17.0415C21.649 17.4332 21.6054 17.8466 21.5184 18.2817C21.3298 19.2246 20.9382 20.0586 20.3435 20.7838C19.7488 21.4946 19.0018 22.0603 18.1025 22.4809C18.233 22.597 18.3346 22.742 18.4071 22.9161C18.4941 23.0756 18.5594 23.2497 18.6029 23.4383L19.4514 27.1806L17.83 33.1762L13.8162 23.9387C13.7727 23.7356 13.7002 23.5906 13.5987 23.5035C13.4971 23.402 13.3231 23.3512 13.0765 23.3512H12.402L11.597 27.1806H6.91907ZM13.1635 19.7395H14.8823C15.4771 19.7395 15.9122 19.6162 16.1878 19.3696C16.4634 19.123 16.652 18.7604 16.7535 18.2817C16.797 18.0641 16.8188 17.8683 16.8188 17.6943C16.8188 17.3897 16.7245 17.1648 16.5359 17.0198C16.3619 16.8747 16.0573 16.8022 15.6221 16.8022H13.7945L13.1635 19.7395Z" fill="#FDFCFD"/>
<path d="M20.5727 27.1806L28.9059 13.1687H33.8013L36.2382 27.1806H31.5603L31.0599 24.3956H27.2523L25.5987 27.1806H20.5727ZM28.5142 21.132H31.1469L30.5377 17.7378L28.5142 21.132Z" fill="#FDFCFD"/>
<path d="M43.9421 27.3982C42.5931 27.3982 41.4109 27.1951 40.3956 26.7889C39.3947 26.3683 38.6114 25.7591 38.0457 24.9613C37.48 24.149 37.1972 23.1554 37.1972 21.9805C37.1972 21.4293 37.2625 20.8419 37.393 20.2181C37.9007 17.8393 38.9088 16.0334 40.4173 14.8005C41.9259 13.5676 44.1161 12.9511 46.9881 12.9511C47.8439 12.9511 48.6054 13.0164 49.2727 13.1469C49.9544 13.2775 50.5854 13.466 51.1656 13.7126L50.2953 17.7813C49.7151 17.4767 49.1349 17.2591 48.5547 17.1286C47.989 16.9835 47.2927 16.911 46.4659 16.911C45.291 16.911 44.3409 17.1648 43.6157 17.6725C42.8904 18.1657 42.4045 19.0142 42.1579 20.2181C42.1144 20.4502 42.0782 20.6678 42.0491 20.8709C42.0201 21.0739 42.0056 21.2625 42.0056 21.4366C42.0056 22.1763 42.245 22.6985 42.7236 23.0031C43.2168 23.2932 44.0146 23.4383 45.117 23.4383C45.8277 23.4383 46.524 23.373 47.2057 23.2425C47.9019 23.0974 48.6054 22.8798 49.3162 22.5897L48.4459 26.6802C47.7641 26.9122 47.0606 27.0863 46.3354 27.2023C45.6246 27.3329 44.8269 27.3982 43.9421 27.3982Z" fill="#FDFCFD"/>
<path d="M49.6714 27.1806L52.6305 13.1687H62.4666L61.7486 16.6281H56.5904L56.1987 18.4123H60.5519L59.8121 21.9588H55.459L55.0673 23.7211H60.2255L59.5075 27.1806H49.6714Z" fill="#FDFCFD"/>
</svg>
